<svg xmlns="http://www.w3.org/2000/svg" viewBox="0 0 280 160" width="280" height="160">
  <defs>
    <linearGradient id="siteBg-7" x1="0%" y1="0%" x2="0%" y2="100%">
      <stop offset="0%" style="stop-color:#1E3A5F" />
      <stop offset="100%" style="stop-color:#2C5282" />
    </linearGradient>
  </defs>
  
  <rect width="280" height="160" fill="url(#siteBg-7)" />
  <polygon points="182.2328759088334,160 187.2328759088334,103.50630998309065 192.2328759088334,160" fill="rgba(70, 100, 70, 0.3)" /><ellipse cx="187.2328759088334" cy="103.50630998309065" rx="19.22905373909932" ry="20.382059815051996" fill="rgba(30, 80, 60, 0.35)" /><polygon points="74.09258369081309,160 79.09258369081309,89.22766624913908 84.09258369081309,160" fill="rgba(70, 100, 70, 0.3)" /><ellipse cx="79.09258369081309" cy="89.22766624913908" rx="19.45807934154667" ry="24.979895357964512" fill="rgba(30, 80, 60, 0.35)" /><polygon points="164.92887504628342,160 169.92887504628342,86.30945443003878 174.92887504628342,160" fill="rgba(70, 100, 70, 0.3)" /><ellipse cx="169.92887504628342" cy="86.30945443003878" rx="18.090488436673994" ry="20.29541492708745" fill="rgba(30, 80, 60, 0.35)" /><polygon points="221.77396784619148,160 226.77396784619148,86.44350289201527 231.77396784619148,160" fill="rgba(70, 100, 70, 0.3)" /><ellipse cx="226.77396784619148" cy="86.44350289201527" rx="18.93826675738127" ry="16.352086067829323" fill="rgba(30, 80, 60, 0.35)" /><polygon points="215.7968033364959,160 220.7968033364959,75.84982333977233 225.7968033364959,160" fill="rgba(70, 100, 70, 0.3)" /><ellipse cx="220.7968033364959" cy="75.84982333977233" rx="15.761386873089423" ry="18.580327035663803" fill="rgba(30, 80, 60, 0.35)" />
  <path d="M0,140.8 Q84,115.19999999999999 140,128 T280,136" stroke="#90CDF4" stroke-width="4" fill="none" opacity="0.4" />
  
  <circle cx="252" cy="28" r="20" fill="#90CDF4" opacity="0.85" />
  <text x="252" y="34" font-size="18" font-weight="bold" text-anchor="middle" fill="#1E3A5F">7</text>
  
  <text x="140" y="148" font-size="12" text-anchor="middle" fill="#90CDF4" opacity="0.9">Lothlorien</text>
</svg>