<svg xmlns="http://www.w3.org/2000/svg" viewBox="0 0 280 160" width="280" height="160">
  <defs>
    <linearGradient id="siteBg-4" x1="0%" y1="0%" x2="0%" y2="100%">
      <stop offset="0%" style="stop-color:#1E3A5F" />
      <stop offset="100%" style="stop-color:#2C5282" />
    </linearGradient>
  </defs>
  
  <rect width="280" height="160" fill="url(#siteBg-4)" />
  <polygon points="128.73609072004263,160 133.73609072004263,76.86015187150807 138.73609072004263,160" fill="rgba(70, 100, 70, 0.3)" /><ellipse cx="133.73609072004263" cy="76.86015187150807" rx="13.08488941243146" ry="21.499711576150595" fill="rgba(30, 80, 60, 0.35)" /><polygon points="253.26694500319053,160 258.26694500319053,83.068242060518 263.26694500319053,160" fill="rgba(70, 100, 70, 0.3)" /><ellipse cx="258.26694500319053" cy="83.068242060518" rx="13.606651306900499" ry="17.17289954525088" fill="rgba(30, 80, 60, 0.35)" /><polygon points="81.79905179971786,160 86.79905179971786,94.31233494743347 91.79905179971786,160" fill="rgba(70, 100, 70, 0.3)" /><ellipse cx="86.79905179971786" cy="94.31233494743347" rx="12.205657482242984" ry="23.497268822275693" fill="rgba(30, 80, 60, 0.35)" /><polygon points="52.585015321422844,160 57.585015321422844,95.15890910530412 62.585015321422844,160" fill="rgba(70, 100, 70, 0.3)" /><ellipse cx="57.585015321422844" cy="95.15890910530412" rx="15.908910753163003" ry="21.814000609709883" fill="rgba(30, 80, 60, 0.35)" /><polygon points="245.07657062498694,160 250.07657062498694,96.11778139421614 255.07657062498694,160" fill="rgba(70, 100, 70, 0.3)" /><ellipse cx="250.07657062498694" cy="96.11778139421614" rx="15.147832871949223" ry="16.613233090198243" fill="rgba(30, 80, 60, 0.35)" />
  <path d="M0,140.8 Q84,115.19999999999999 140,128 T280,136" stroke="#90CDF4" stroke-width="4" fill="none" opacity="0.4" />
  
  <circle cx="252" cy="28" r="20" fill="#90CDF4" opacity="0.85" />
  <text x="252" y="34" font-size="18" font-weight="bold" text-anchor="middle" fill="#1E3A5F">4</text>
  
  <text x="140" y="148" font-size="12" text-anchor="middle" fill="#90CDF4" opacity="0.9">Rivendell</text>
</svg>