<svg xmlns="http://www.w3.org/2000/svg" viewBox="0 0 200 280" width="200" height="280">
  <defs>
    <linearGradient id="bgGrad-MoriaSample" x1="0%" y1="0%" x2="100%" y2="100%">
      <stop offset="0%" style="stop-color:#5B2222" />
      <stop offset="50%" style="stop-color:#822727" />
      <stop offset="100%" style="stop-color:#5B2222" />
    </linearGradient>
    <radialGradient id="vignette-MoriaSample">
      <stop offset="50%" stop-color="rgba(0,0,0,0)" />
      <stop offset="100%" stop-color="rgba(0,0,0,0.4)" />
    </radialGradient>
    <filter id="glow-MoriaSample">
      <feGaussianBlur stdDeviation="3" result="coloredBlur"/>
      <feMerge>
        <feMergeNode in="coloredBlur"/>
        <feMergeNode in="SourceGraphic"/>
      </feMerge>
    </filter>
  </defs>
  
  <rect width="200" height="280" fill="url(#bgGrad-MoriaSample)" />
  <polygon points="29.74269391491203,0 33.74269391491203,45.7585303605341 37.74269391491203,0" fill="rgba(40, 30, 30, 0.4)" /><polygon points="133.7630749371662,0 137.7630749371662,44.93844629495332 141.7630749371662,0" fill="rgba(40, 30, 30, 0.4)" /><polygon points="87.31417660010707,0 91.31417660010707,44.145437490262765 95.31417660010707,0" fill="rgba(40, 30, 30, 0.4)" /><polygon points="58.81266596671784,0 62.81266596671784,31.050411467929564 66.81266596671784,0" fill="rgba(40, 30, 30, 0.4)" /><polygon points="72.59936336083308,0 76.59936336083308,21.517015696278314 80.59936336083308,0" fill="rgba(40, 30, 30, 0.4)" /><polygon points="96.96040754064936,0 100.96040754064936,25.721830728334297 104.96040754064936,0" fill="rgba(40, 30, 30, 0.4)" /><polygon points="0.493174791565712,0 4.493174791565712,37.62078244826793 8.493174791565712,0" fill="rgba(40, 30, 30, 0.4)" /><polygon points="179.64339264651917,0 183.64339264651917,47.41263510073192 187.64339264651917,0" fill="rgba(40, 30, 30, 0.4)" /><polygon points="115.39206510195139,0 119.39206510195139,43.22969556936515 123.39206510195139,0" fill="rgba(40, 30, 30, 0.4)" /><polygon points="174.66673859146738,0 178.66673859146738,44.56303716849677 182.66673859146738,0" fill="rgba(40, 30, 30, 0.4)" /><polygon points="93.23401455452387,0 97.23401455452387,48.97308470167829 101.23401455452387,0" fill="rgba(40, 30, 30, 0.4)" /><polygon points="189.08705720169797,0 193.08705720169797,47.491942656921196 197.08705720169797,0" fill="rgba(40, 30, 30, 0.4)" /><circle cx="14.008092886772051" cy="138.1698680045874" r="3" fill="rgba(255, 200, 0, 0.5)" /><circle cx="21.00809288677205" cy="138.1698680045874" r="3" fill="rgba(255, 200, 0, 0.5)" /><circle cx="145.09433514675794" cy="180.8962631546409" r="3" fill="rgba(255, 200, 0, 0.5)" /><circle cx="152.09433514675794" cy="180.8962631546409" r="3" fill="rgba(255, 200, 0, 0.5)" /><circle cx="41.56312944440317" cy="196.25234560121424" r="3" fill="rgba(255, 200, 0, 0.5)" /><circle cx="48.56312944440317" cy="196.25234560121424" r="3" fill="rgba(255, 200, 0, 0.5)" /><circle cx="161.88390262512672" cy="214.89307599090648" r="3" fill="rgba(255, 200, 0, 0.5)" /><circle cx="168.88390262512672" cy="214.89307599090648" r="3" fill="rgba(255, 200, 0, 0.5)" /><circle cx="178.63633640978315" cy="138.51632119459862" r="3" fill="rgba(255, 200, 0, 0.5)" /><circle cx="185.63633640978315" cy="138.51632119459862" r="3" fill="rgba(255, 200, 0, 0.5)" /><circle cx="160.5911076816689" cy="143.15689469834646" r="3" fill="rgba(255, 200, 0, 0.5)" /><circle cx="167.5911076816689" cy="143.15689469834646" r="3" fill="rgba(255, 200, 0, 0.5)" />
  <rect width="200" height="280" fill="url(#vignette-MoriaSample)" />
  
  <text x="100" y="140" 
        font-size="50" 
        text-anchor="middle" 
        dominant-baseline="middle" 
        fill="#E53E3E" 
        opacity="0.35"
        filter="url(#glow-MoriaSample)">
    ⛏
  </text>
</svg>