<svg xmlns="http://www.w3.org/2000/svg" viewBox="0 0 200 280" width="200" height="280">
  <defs>
    <linearGradient id="bgGrad-RohanSample" x1="0%" y1="0%" x2="100%" y2="100%">
      <stop offset="0%" style="stop-color:#B7791F" />
      <stop offset="50%" style="stop-color:#D69E2E" />
      <stop offset="100%" style="stop-color:#B7791F" />
    </linearGradient>
    <radialGradient id="vignette-RohanSample">
      <stop offset="50%" stop-color="rgba(0,0,0,0)" />
      <stop offset="100%" stop-color="rgba(0,0,0,0.4)" />
    </radialGradient>
    <filter id="glow-RohanSample">
      <feGaussianBlur stdDeviation="3" result="coloredBlur"/>
      <feMerge>
        <feMergeNode in="coloredBlur"/>
        <feMergeNode in="SourceGraphic"/>
      </feMerge>
    </filter>
  </defs>
  
  <rect width="200" height="280" fill="url(#bgGrad-RohanSample)" />
  <circle cx="160" cy="56" r="20" fill="rgba(255, 215, 0, 0.5)" /><line x1="180" y1="56" x2="200" y2="56" stroke="rgba(255, 215, 0, 0.4)" stroke-width="2" /><line x1="177.32050807568876" y1="66" x2="194.64101615137756" y2="76" stroke="rgba(255, 215, 0, 0.4)" stroke-width="2" /><line x1="170" y1="73.32050807568876" x2="180" y2="90.64101615137754" stroke="rgba(255, 215, 0, 0.4)" stroke-width="2" /><line x1="160" y1="76" x2="160" y2="96" stroke="rgba(255, 215, 0, 0.4)" stroke-width="2" /><line x1="150" y1="73.32050807568878" x2="140" y2="90.64101615137756" stroke="rgba(255, 215, 0, 0.4)" stroke-width="2" /><line x1="142.67949192431124" y1="66" x2="125.35898384862244" y2="76" stroke="rgba(255, 215, 0, 0.4)" stroke-width="2" /><line x1="140" y1="56" x2="120" y2="56.00000000000001" stroke="rgba(255, 215, 0, 0.4)" stroke-width="2" /><line x1="142.67949192431124" y1="46" x2="125.35898384862246" y2="36" stroke="rgba(255, 215, 0, 0.4)" stroke-width="2" /><line x1="150" y1="38.67949192431123" x2="139.99999999999997" y2="21.358983848622458" stroke="rgba(255, 215, 0, 0.4)" stroke-width="2" /><line x1="160" y1="36" x2="160" y2="16" stroke="rgba(255, 215, 0, 0.4)" stroke-width="2" /><line x1="170" y1="38.67949192431123" x2="180" y2="21.358983848622458" stroke="rgba(255, 215, 0, 0.4)" stroke-width="2" /><line x1="177.32050807568876" y1="45.99999999999999" x2="194.64101615137753" y2="35.999999999999986" stroke="rgba(255, 215, 0, 0.4)" stroke-width="2" /><line x1="169.10688884980368" y1="278.14696028369804" x2="170.19923599725556" y2="256.71818985776895" stroke="rgba(180, 160, 100, 0.3)" stroke-width="1" /><line x1="110.85989480412562" y1="257.1752653276433" x2="112.135179573733" y2="237.92404807960804" stroke="rgba(180, 160, 100, 0.3)" stroke-width="1" /><line x1="144.39146525431028" y1="246.91035748594922" x2="142.44465834761257" y2="220.0364309600724" stroke="rgba(180, 160, 100, 0.3)" stroke-width="1" /><line x1="42.84613134471985" y1="253.72333218051276" x2="42.57777120851808" y2="230.03541399027938" stroke="rgba(180, 160, 100, 0.3)" stroke-width="1" /><line x1="10.280132298488232" y1="253.8808190961745" x2="8.331744199773178" y2="237.3111277950514" stroke="rgba(180, 160, 100, 0.3)" stroke-width="1" /><line x1="199.0226567718306" y1="264.8374500464822" x2="201.91330275587427" y2="235.30731941494497" stroke="rgba(180, 160, 100, 0.3)" stroke-width="1" /><line x1="150.35185820905113" y1="271.74196054774427" x2="152.3649712337018" y2="253.8916127890775" stroke="rgba(180, 160, 100, 0.3)" stroke-width="1" /><line x1="50.34347178896119" y1="274.25370695546906" x2="50.529099728227166" y2="246.64031328523544" stroke="rgba(180, 160, 100, 0.3)" stroke-width="1" /><line x1="130.77080255875867" y1="268.0378103461293" x2="132.87697798427055" y2="246.3646727974362" stroke="rgba(180, 160, 100, 0.3)" stroke-width="1" /><line x1="113.80951409871203" y1="273.1370992889335" x2="115.40484052496258" y2="255.80524935517704" stroke="rgba(180, 160, 100, 0.3)" stroke-width="1" /><line x1="130.0574601302191" y1="255.59679795782864" x2="131.68783504128822" y2="235.8397679453901" stroke="rgba(180, 160, 100, 0.3)" stroke-width="1" /><line x1="162.72134788461094" y1="278.3203087105976" x2="162.6267472089393" y2="259.191101574428" stroke="rgba(180, 160, 100, 0.3)" stroke-width="1" /><line x1="98.72293476887184" y1="251.40124131524993" x2="98.89749913238803" y2="224.72236681716626" stroke="rgba(180, 160, 100, 0.3)" stroke-width="1" /><line x1="94.34366230589508" y1="273.0583458175223" x2="98.18778233518255" y2="243.24996997520793" stroke="rgba(180, 160, 100, 0.3)" stroke-width="1" /><line x1="40.98978044511274" y1="277.01037385548017" x2="42.90863325396023" y2="261.19881072090885" stroke="rgba(180, 160, 100, 0.3)" stroke-width="1" /><line x1="78.16675309006439" y1="237.12386513367474" x2="75.53682283290513" y2="208.5600959656574" stroke="rgba(180, 160, 100, 0.3)" stroke-width="1" /><line x1="194.64311608795222" y1="234.45548630247615" x2="197.97150454389467" y2="214.48906696098348" stroke="rgba(180, 160, 100, 0.3)" stroke-width="1" /><line x1="117.97378068695488" y1="234.56157017245962" x2="116.6908629502593" y2="215.6627504856618" stroke="rgba(180, 160, 100, 0.3)" stroke-width="1" /><line x1="131.78868299899096" y1="263.2387752715679" x2="129.95169455090152" y2="237.8644878998699" stroke="rgba(180, 160, 100, 0.3)" stroke-width="1" /><line x1="71.31733897669118" y1="267.9502315725899" x2="74.61008075559982" y2="239.58772016995945" stroke="rgba(180, 160, 100, 0.3)" stroke-width="1" />
  <rect width="200" height="280" fill="url(#vignette-RohanSample)" />
  
  <text x="100" y="140" 
        font-size="50" 
        text-anchor="middle" 
        dominant-baseline="middle" 
        fill="#2D3748" 
        opacity="0.35"
        filter="url(#glow-RohanSample)">
    ♞
  </text>
</svg>